<svg width="205px" height="145px" xmlns="http://www.w3.org/2000/svg" xmlns:xlink="http://www.w3.org/1999/xlink" viewBox="0 0 111.07 86.89"><defs><style>.cls-1{fill:url(#linear-gradient);}</style><linearGradient id="linear-gradient" x1="11.74" y1="91.8" x2="94.26" y2="9.27" gradientUnits="userSpaceOnUse"><stop offset="0" stop-color="#ffc332"/><stop offset="0.04" stop-color="#ffc536"/><stop offset="0.08" stop-color="#ffcb41"/><stop offset="0.12" stop-color="#ffd454"/><stop offset="0.15" stop-color="#ffdf6a"/><stop offset="0.5" stop-color="#d28a2b"/><stop offset="0.51" stop-color="#d48e2b"/><stop offset="0.55" stop-color="#e7a82e"/><stop offset="0.6" stop-color="#f4bc30"/><stop offset="0.65" stop-color="#fcc731"/><stop offset="0.7" stop-color="#ffcb31"/><stop offset="0.7" stop-color="#ffcb31"/><stop offset="0.75" stop-color="#ffd44a"/><stop offset="0.79" stop-color="#ffda5c"/><stop offset="0.84" stop-color="#ffde67"/><stop offset="0.9" stop-color="#ffdf6a"/></linearGradient></defs><title>Asset 5</title><g id="Layer_2" data-name="Layer 2"><g id="Layer_1-2" data-name="Layer 1"><path class="cls-1" d="M110.79,66.43a.87.87,0,0,0-.65-.25c-.55,0-7.13.25-16.78.71V47.71a5.54,5.54,0,0,1,4.26-4.84,3.87,3.87,0,0,0,2.81-2.45,4.87,4.87,0,0,0-.66-4,13.34,13.34,0,0,0,3.15-8.76c-.21-5.68-4.06-9.17-6.36-11.26a3,3,0,0,0-3.16-.61c-.82.37-1.8,1.32-1.8,3.78v12c-2-1-3.47-2.23-3.79-4.8C87,20.37,93.2,9.29,93.26,9.18A.86.86,0,0,0,93,8a.89.89,0,0,0-1.17.13,53.46,53.46,0,0,0-6.79,10.14c-3.8,7.61-3.71,13.71.26,17.62a12.36,12.36,0,0,0,6.29,3.66V67c-5,.24-10.72.53-16.8.88V55.57c3.65-2.24,6-5.83,6.19-9.49a8.31,8.31,0,0,0-.78-4A7,7,0,0,0,82,38.47c.35-2.33-.61-4.74-2.84-7.18a44.36,44.36,0,0,0-3.68-3.5l-.67-.6V12.3a.89.89,0,0,0-.49-.77.86.86,0,0,0-.9.07c-.31.21-7.49,5.4-7.47,13.15,0,4.45,2.4,8.75,7.11,12.83v7.68a6.72,6.72,0,0,0-2.82,4.19c-.24,1.81.67,3.71,2.82,6V68c-5.34.31-10.93.67-16.53,1.07V47.4c3.31-2.25,4.72-4.29,4.32-6.21-.32-1.54-2.06-2.44-4.32-3.48V32.82l.14,0c4.09-1.06,7.61-8.27,8.32-14.34.17-1.39.26-3.39-.8-4.72a3.33,3.33,0,0,0-2.35-1.2,4.51,4.51,0,0,0-3.66,1.2c-3.5,3.2-3.41,11.81-3.41,12.16V31a3.94,3.94,0,0,1-1.5-1.37c-3.81-5.31-2.47-19.07,2.39-24.54,1.91-2.16,4.07-2.6,6.4-1.32a.86.86,0,0,0,1-.12.89.89,0,0,0,.21-1S61.1-2,54.07,1c-5.75,2.44-12.4,14.25-9.72,27.22,1.28,6.2,6.42,8.77,10.4,10.6v30.3c-7,.51-13.12,1-18.46,1.53a.88.88,0,0,0,.06-.27V47.51c2.55-.91,4.37-5,4.62-8.45.17-2.34-.57-4.19-1.94-4.82a2.78,2.78,0,0,0-3.17.81c-1.37,1.36-1.28,4.27-1.27,4.56v6.16A6.56,6.56,0,0,1,32.28,43a12.45,12.45,0,0,1-1.09-5.78c2.57-1.44,5.91-5.41,10-11.86,2-3.21,1.57-5.77.24-6.89-1.07-.9-3.17-1.18-5.54,1-3,2.69-5.92,10.08-6.34,16.6a1.16,1.16,0,0,1-.47,0c-.48-.09-.71-.76-.82-1.3C27.38,30.58,30.61,21,36,17.44a.88.88,0,1,0-1-1.47c-6,4-9.5,14.4-8.55,19.11.42,2.05,1.58,2.56,2.24,2.68a2.52,2.52,0,0,0,.73,0,13.6,13.6,0,0,0,1.24,6c1.34,2.61,2.72,3.6,3.88,3.86V70.4a.77.77,0,0,0,.13.42c-6.37.63-11.57,1.25-15.82,1.85V54.32c0-4.65,2.49-8.73,4.13-11.43a16.45,16.45,0,0,0,1.34-2.44,3.61,3.61,0,0,0-.14-3,4.54,4.54,0,0,0-2.94-2,9.8,9.8,0,0,1-2.39-.91v-8c3.84-1.4,7.3-3.21,8.59-6.12A6.62,6.62,0,0,0,26,13c-1.08-1-4.21-3-9.82.13A11,11,0,0,0,10.5,24.85a15.3,15.3,0,0,0,.56,2.45A5.23,5.23,0,0,0,8.21,31c-.49,2.78,1.36,6.1,5,8.87,3.76,2.9,4,8.28,4,9.1v24C0,75.52,0,77.81,0,79c0,3.47,6.22,5.76,39.05,7.88h.06a.88.88,0,0,0,0-1.76c-9.25-.59-37.4-2.41-37.4-6.12,0-.44,1.49-4.38,53.25-8.13,26.81-1.94,54.05-2.9,55.2-2.94a.9.9,0,0,0,.86-.88A.84.84,0,0,0,110.79,66.43ZM93.36,19.6c0-1.17.28-2,.76-2.17a1.31,1.31,0,0,1,1.26.3c2.09,1.9,5.6,5.08,5.79,10a11.71,11.71,0,0,1-2.58,7.37,16.21,16.21,0,0,0-4.68-2.51l-.55-.22Zm0,14.69a15,15,0,0,1,4,2.09,7.42,7.42,0,0,1-1.75,1.09,6.07,6.07,0,0,1-2.24.53Zm0,5.45a7.8,7.8,0,0,0,3-.66,8.92,8.92,0,0,0,2.16-1.35,2.92,2.92,0,0,1,.29,2.14,2.24,2.24,0,0,1-1.64,1.32,8,8,0,0,0-3.76,2.33Zm-6.82-5.06c-4.73-4.66-2-12.19,1.31-17.83C86.63,20.23,85.69,24,86.07,27c.46,3.73,2.94,5.35,5.53,6.51v4.26A11.31,11.31,0,0,1,86.54,34.68ZM79.23,46a10.21,10.21,0,0,1-4.43,7.46V46.14c.61-.44,1.32-.9,2.15-1.39a16.16,16.16,0,0,0,1.92-1.33A6.59,6.59,0,0,1,79.23,46ZM77.86,32.48c1.85,2,2.66,4,2.4,5.74a5.16,5.16,0,0,1-1,2.31,9.54,9.54,0,0,0-2-2c-.85-.6-1.65-1.21-2.39-1.82V29.54A39.32,39.32,0,0,1,77.86,32.48ZM73,14.84V25.53a7.88,7.88,0,0,1-2.27-4.37A7.85,7.85,0,0,1,73,14.84Zm-5.35,9.91A11.72,11.72,0,0,1,69,19.54,8,8,0,0,0,69,21.42c.45,2.92,2,4.74,4,6.55V35.2C69.5,31.81,67.7,28.31,67.69,24.75ZM74.8,39c.44.34.9.68,1.38,1A7.79,7.79,0,0,1,78,41.82a12.78,12.78,0,0,1-2,1.42L74.8,44ZM72,49.67a3.71,3.71,0,0,1,1.08-2v5A4.45,4.45,0,0,1,72,49.67ZM37,20.7a4,4,0,0,1,2.42-1.19,1.26,1.26,0,0,1,.81.27c.75.63.78,2.41-.6,4.6-4,6.38-6.67,9.29-8.34,10.61C32,29.25,34.51,23,37,20.7Zm.06,15.6a1.55,1.55,0,0,1,.95-.52.69.69,0,0,1,.24,0c.56.26,1.05,1.41.93,3.11-.2,2.72-1.49,5.55-2.87,6.59v-6C36.31,38.64,36.48,36.91,37.1,36.3Zm-16.2.82a2.73,2.73,0,0,1,1.79,1.16,1.87,1.87,0,0,1,0,1.58A15,15,0,0,1,21.53,42a43.79,43.79,0,0,0-2.63,4.86V36.45A12,12,0,0,0,20.9,37.12Zm-3.76-3.81a13.46,13.46,0,0,1-3.83-5l.78-.24c1-.31,2-.63,3.05-1Zm4.65-20.12a4.32,4.32,0,0,1,3,1.09,4.86,4.86,0,0,1,1.08,5.35c-1,2.18-3.8,3.73-7,4.95V13.79A8.39,8.39,0,0,1,21.79,13.19ZM17,14.65a.67.67,0,0,1,.12-.06V25.22c-1.2.42-2.42.8-3.57,1.15l-.88.27a12.65,12.65,0,0,1-.44-2A9.31,9.31,0,0,1,17,14.65ZM14.25,38.48c-3.07-2.36-4.68-5-4.3-7.18A3.4,3.4,0,0,1,11.69,29a15.17,15.17,0,0,0,5.45,6.53V42A10.79,10.79,0,0,0,14.25,38.48Zm44.86,3.07c.2,1-.72,2.24-2.6,3.68V39.65C57.85,40.29,59,40.94,59.11,41.55ZM59.35,15a2.75,2.75,0,0,1,1.93-.78l.36,0a1.65,1.65,0,0,1,1.16.56c.48.6.62,1.75.43,3.42C62.55,24,59.4,29.92,56.51,31V25.88C56.47,23.61,56.92,17.24,59.35,15ZM46.07,27.88C43.61,16,49.67,4.79,54.76,2.64A12.18,12.18,0,0,1,56.65,2a8.73,8.73,0,0,0-2.33,1.89c-5.38,6.06-6.76,20.8-2.5,26.74a5.13,5.13,0,0,0,2.93,2.19V36.9C51.12,35.19,47.1,32.89,46.07,27.88Z"/></g></g></svg>
